<svg width="14" height="12" viewBox="0 0 14 12" fill="none" xmlns="http://www.w3.org/2000/svg">
<path fill-rule="evenodd" clip-rule="evenodd" d="M0.622884 7.93366C0.831164 7.72538 1.16885 7.72538 1.37713 7.93366L3.64088 10.1974L5.90462 7.93366C6.1129 7.72538 6.45059 7.72538 6.65887 7.93366C6.86715 8.14194 6.86715 8.47963 6.65887 8.68791L4.018 11.3288C3.80972 11.5371 3.47203 11.5371 3.26375 11.3288L0.622884 8.68791C0.414605 8.47963 0.414605 8.14194 0.622884 7.93366Z" fill="#4D4D4D"/>
<path fill-rule="evenodd" clip-rule="evenodd" d="M3.64083 0.515061C3.93538 0.515061 4.17416 0.753842 4.17416 1.04839L4.17416 10.9516C4.17416 11.2462 3.93538 11.485 3.64083 11.485C3.34628 11.485 3.1075 11.2462 3.1075 10.9516L3.1075 1.04839C3.1075 0.753842 3.34628 0.515061 3.64083 0.515061Z" fill="#4D4D4D"/>
<path fill-rule="evenodd" clip-rule="evenodd" d="M13.3771 4.06637C13.1688 4.27465 12.8311 4.27465 12.6229 4.06637L10.3591 1.80262L8.09538 4.06637C7.8871 4.27465 7.54941 4.27465 7.34113 4.06637C7.13285 3.85809 7.13285 3.5204 7.34113 3.31212L9.982 0.671255C10.1903 0.462975 10.528 0.462975 10.7362 0.671255L13.3771 3.31212C13.5854 3.5204 13.5854 3.85809 13.3771 4.06637Z" fill="#4D4D4D"/>
<path fill-rule="evenodd" clip-rule="evenodd" d="M10.3592 11.485C10.0646 11.485 9.82584 11.2462 9.82584 10.9516L9.82584 1.04838C9.82584 0.753831 10.0646 0.51505 10.3592 0.51505C10.6537 0.51505 10.8925 0.753831 10.8925 1.04838L10.8925 10.9516C10.8925 11.2462 10.6537 11.485 10.3592 11.485Z" fill="#4D4D4D"/>
</svg>
